<svg version="1.2" xmlns="http://www.w3.org/2000/svg" viewBox="0 0 122 122" width="122" height="122"><defs><filter x="-50%" y="-50%" width="200%" height="200%" id="f1"> <feGaussianBlur stdDeviation="9.5"/> </filter><linearGradient id="P" gradientUnits="userSpaceOnUse"/><linearGradient id="g1" x1="60.1" y1="27.9" x2="60.1" y2="91.2" href="#P"><stop stop-color="#5e81ac"/><stop offset="1" stop-color="#b48ead"/></linearGradient><linearGradient id="g2" x1="60.1" y1="27.9" x2="60.1" y2="91.2" href="#P"><stop stop-color="#5e81ac"/><stop offset="1" stop-color="#b48ead"/></linearGradient><linearGradient id="g3" x1="60.1" y1="27.9" x2="60.1" y2="91.2" href="#P"><stop stop-color="#5e81ac"/><stop offset="1" stop-color="#b48ead"/></linearGradient><linearGradient id="g4" x1="60.1" y1="27.9" x2="60.1" y2="91.2" href="#P"><stop stop-color="#5e81ac"/><stop offset="1" stop-color="#b48ead"/></linearGradient></defs><style>.a{fill:#2e3440}.b{filter:url(#f1);fill:#434c5e}.c{fill:#b48ead}.d{fill:#3b4252}.e{fill:url(#g1)}.f{fill:url(#g2)}.g{fill:url(#g3)}.h{fill:url(#g4)}.i{fill:#4c566a}</style><circle class="a" cx="60.8" cy="60.8" r="60.8"/><circle class="b" cx="60.8" cy="60.8" r="38"/><path class="c" d="m42.6 84.8v2.2l1.7 1.4v-2.7h2.9v3l-4 3-3.3-2.7v-11.3l1-1.1h5.2l1.1 1.1v3.4h-2.9v-1.6h-1.7v2.3h1.6v3z"/><path class="c" d="m54.8 76.6h3v12.1l-3 2.2v-7l-1.9 4.9-2.2-4.8v6.9l-2.9-2.2v-12.1h2.9l2 4.4z"/><path fill-rule="evenodd" class="c" d="m61.3 86.5v4.7l-2.8-2.2v-11.3l1.1-1.1h5.2l1.1 1.1v11.3l-2.9 2.2v-4.7zm0-2.9h1.6v-4.1h-1.6z"/><path class="c" d="m70.8 81.1v-1.6h-1.6v8.9l1.6-1.4v-1.3h3v3l-4 3-3.4-2.7v-11.3l1.1-1.1h5.2l1.1 1.1v3.4z"/><path class="c" d="m74.3 89v-2.5h2.8v1.8l1.6-1.3v-1.5l-4.4-2.5v-5.5l0.7-0.9h5.7l1 1.1v2.5h-3v-0.9h-1.6v2.4l4.6 2.4v4.9l-4 2.7z"/><path class="d" d="m44.3 79.5v1.5h2.9v2h-2.9v-1.6h-1.7v-1.9zm0 5.3v2h-1.6v-2zm3 5.9l-4 2.9-3.3-2.7v-1.9l3.3 2.7 4-3z"/><path class="d" d="m54.8 85.9l-1.9 4.9-2.2-4.8v-2l2.2 4.8 1.9-4.9zm-4.1 5v2l-2.9-2.2v-1.9zm7-0.2l-2.9 2.1v-1.9l2.9-2.2z"/><path class="d" d="m63 79.5v1.9h-1.7v-1.9zm0 7v2h-1.6v-2zm-1.6 4.7v2l-2.8-2.3v-1.9zm4.6-0.3l-3 2.2v-1.9l3-2.3z"/><path class="d" d="m70.8 79.5v1.5h3v2h-3v-1.6h-1.6v-1.9zm3 11.2l-4 2.9-3.4-2.7v-1.9l3.4 2.7 4-3z"/><path class="d" d="m78.7 79.3v0.9h3v2h-3v-0.9h-1.6v-2zm0 6.2v1.5l-0.3 0.3-1.3-0.8h-0.1l-2.7-1.6v-1.9zm-1 6.1l3.9-2.6v1.9l-3.9 2.7-3.4-2.7v-1.9z"/><path fill-rule="evenodd" class="e" d="m33.9 27.9l4.1 2.4v29.6l-18.3 14.6 0.4-1.1v-44l-1.2-1.5zm-7.1 7.1v23.1l4-3.1v-20z"/><path fill-rule="evenodd" class="f" d="m55.4 27.9l2.7 2.7v27.4l-9.9 7.3-8.3-6.7v-27.8l2.6-2.9zm-8.7 7.1v18.8l4.1 3.4v-22.2z"/><path class="g" d="m86.3 64.7l-6.5-4.9 0.5-0.3v-30.2l-0.5-1.4h7.7l3.4 9.5 3.8-9.5h7.9l-1.2 1.7v43.4l0.8 3.6-3.9-2.9-4.1-3.1 1-1.4v-15.9l-4.4 11.9-4.5-16z"/><path fill-rule="evenodd" class="h" d="m75.7 27.9l2.6 2.9v27.8l-8.3 6.7-9.9-7.3v-27.4l2.7-2.7zm-8.4 7.1v22.2l4.1-3.4v-18.8z"/><path class="d" d="m46.8 35h4v5.9h-4zm11.3 29l-9.9 7.2-8.3-6.6v-6l8.3 6.7 9.9-7.3z"/><path class="d" d="m67.4 35h4v5.9h-4zm2.6 30.3l8.3-6.7v6l-8.3 6.6-9.9-7.2v-6z"/><path class="d" d="m20.1 29.4v4.4 1.5l-1.2-1.5v-5.9zm6.6 5.6h4.1v5.9h-4.1zm11.3 30.8l-18.3 14.7v-6l0.4-0.3 17.9-14.3z"/><path class="d" d="m80.3 29.3v4.5 1.4l-0.5-1.4v-5.9zm22.3 4.5l-1.1 1.7v-1.7-4.2l1.1-1.8zm-11.8 31.5l4.4-12v5.9l-4.4 12-4.5-16v-6zm-10.5-5.1l6 4.6v5.9l-6.5-4.8v-6zm15 11.2l3.1 2.4 3.1 2.3 0.8 0.6v5.9l-3.9-2.9-4.1-3.1v-5.9z"/><g style="opacity:.3"><path class="i" d="m33.9 27.9l4.1 2.4v1.4l-3.1-1.8h-14.8v-0.5l-1.2-1.5zm-12.7 3.5v42l-1.5 1.1 0.5-1.1v-43.3z"/><path class="i" d="m55.4 27.9l2.7 2.7v1l-1.7-1.7h-12.9l-2.6 2.8v26.7l-1-0.8v-27.8l2.6-2.9z"/><path class="i" d="m75.7 27.9l2.6 2.9v0.8l-1.6-1.7h-12.9l-2.7 2.7v26.1l-1-0.7v-27.4l2.7-2.7z"/><path class="i" d="m91.9 39.3l-0.1 0.4-0.9-2.3 0.2-0.4zm-4.5-11.4l0.7 1.9h-7.4l0.5 1.5v29.6l-1.4-1.1 0.4-0.4v-30.1l-0.5-1.4zm15.1 0l-1.1 1.7v0.2h-5.8l-3.7 9.5-0.9-2.3 3.6-9.1z"/></g></svg>